<?xml version="1.0" standalone="no"?><!DOCTYPE svg PUBLIC "-//W3C//DTD SVG 1.1//EN" "http://www.w3.org/Graphics/SVG/1.1/DTD/svg11.dtd"><svg t="1673430810486" class="icon" viewBox="0 0 1024 1024" version="1.1" xmlns="http://www.w3.org/2000/svg" p-id="3598" xmlns:xlink="http://www.w3.org/1999/xlink" width="200" height="200"><path d="M512 324.266667c-104.106667 0-187.733333 83.626667-187.733333 187.733333 0 104.106667 83.626667 187.733333 187.733333 187.733333 104.106667 0 187.733333-83.626667 187.733333-187.733333C699.733333 407.893333 616.106667 324.266667 512 324.266667zM512 658.773333c-81.92 0-146.773333-66.56-146.773333-146.773333 0-81.92 66.56-146.773333 146.773333-146.773333 81.92 0 146.773333 66.56 146.773333 146.773333C658.773333 593.92 593.92 658.773333 512 658.773333zM512 0C228.693333 0 0 228.693333 0 512c0 283.306667 228.693333 512 512 512 283.306667 0 512-228.693333 512-512C1024 228.693333 795.306667 0 512 0zM512 983.04C252.586667 983.04 40.96 771.413333 40.96 512 40.96 252.586667 252.586667 40.96 512 40.96c259.413333 0 471.04 209.92 471.04 471.04C983.04 771.413333 771.413333 983.04 512 983.04zM752.64 271.36c-133.12-133.12-346.453333-133.12-479.573333 0-110.933333 110.933333-128 278.186667-54.613333 407.893333 6.826667 11.946667 6.826667 23.893333 1.706667 35.84l-29.013333 68.266667c-6.826667 15.36-3.413333 32.426667 8.533333 44.373333s29.013333 15.36 44.373333 8.533333l69.973333-29.013333c11.946667-5.12 23.893333-3.413333 35.84 1.706667 128 69.973333 291.84 49.493333 401.066667-58.026667C884.053333 619.52 884.053333 404.48 752.64 271.36zM721.92 721.92c-95.573333 95.573333-238.933333 112.64-353.28 51.2-22.186667-11.946667-47.786667-13.653333-69.973333-3.413333-20.48 8.533333-39.253333 17.066667-59.733333 25.6-1.706667 0-3.413333 0-5.12-1.706667-1.706667-1.706667-1.706667-3.413333-1.706667-5.12l23.893333-58.026667c10.24-23.893333 8.533333-49.493333-5.12-71.68-64.853333-116.053333-49.493333-261.12 47.786667-358.4 116.053333-116.053333 305.493333-116.053333 421.546667 0C839.68 418.133333 839.68 605.866667 721.92 721.92z" fill="#272636" p-id="3599"></path></svg>